<?xml version="1.0" encoding="utf-8"?>
<!-- Generator: Adobe Illustrator 24.2.1, SVG Export Plug-In . SVG Version: 6.00 Build 0)  -->
<svg version="1.1" id="Capa_1" xmlns="http://www.w3.org/2000/svg" xmlns:xlink="http://www.w3.org/1999/xlink" x="0px" y="0px"
	 viewBox="0 0 500 500" style="enable-background:new 0 0 500 500;" xml:space="preserve">
<style type="text/css">
	.st0{fill:none;stroke:#222221;stroke-width:14.1878;stroke-miterlimit:10;}
	.st1{fill:#222221;}
</style>
<g id="XMLID_2023_">
	<path id="XMLID_2079_" class="st0" d="M250,430L250,430c-99.4,0-180-80.6-180-180v0c0-99.4,80.6-180,180-180l0,0
		c99.4,0,180,80.6,180,180v0C430,349.4,349.4,430,250,430z"/>
	<g id="XMLID_2024_">
		<path id="XMLID_2076_" class="st1" d="M250,169.1c26.4,0,29.5,0.1,39.9,0.6c9.6,0.4,14.8,2,18.3,3.4c4.6,1.8,7.9,3.9,11.3,7.4
			c3.5,3.5,5.6,6.7,7.4,11.3c1.4,3.5,3,8.7,3.4,18.3c0.5,10.4,0.6,13.5,0.6,39.9s-0.1,29.5-0.6,39.9c-0.4,9.6-2,14.8-3.4,18.3
			c-1.8,4.6-3.9,7.9-7.4,11.3c-3.5,3.5-6.7,5.6-11.3,7.4c-3.5,1.4-8.7,3-18.3,3.4c-10.4,0.5-13.5,0.6-39.9,0.6s-29.5-0.1-39.9-0.6
			c-9.6-0.4-14.8-2-18.3-3.4c-4.6-1.8-7.9-3.9-11.3-7.4c-3.5-3.5-5.6-6.7-7.4-11.3c-1.4-3.5-3-8.7-3.4-18.3
			c-0.5-10.4-0.6-13.5-0.6-39.9s0.1-29.5,0.6-39.9c0.4-9.6,2-14.8,3.4-18.3c1.8-4.6,3.9-7.9,7.4-11.3c3.5-3.5,6.7-5.6,11.3-7.4
			c3.5-1.4,8.7-3,18.3-3.4C220.5,169.2,223.6,169.1,250,169.1 M250,151.3c-26.8,0-30.2,0.1-40.7,0.6c-10.5,0.5-17.7,2.1-24,4.6
			c-6.5,2.5-12,5.9-17.5,11.4c-5.5,5.5-8.9,11-11.4,17.5c-2.4,6.3-4.1,13.5-4.6,24c-0.5,10.5-0.6,13.9-0.6,40.7
			c0,26.8,0.1,30.2,0.6,40.7c0.5,10.5,2.1,17.7,4.6,24c2.5,6.5,5.9,12,11.4,17.5c5.5,5.5,11,8.9,17.5,11.4c6.3,2.4,13.5,4.1,24,4.6
			c10.5,0.5,13.9,0.6,40.7,0.6c26.8,0,30.2-0.1,40.7-0.6c10.5-0.5,17.7-2.1,24-4.6c6.5-2.5,12-5.9,17.5-11.4
			c5.5-5.5,8.9-11,11.4-17.5c2.4-6.3,4.1-13.5,4.6-24c0.5-10.5,0.6-13.9,0.6-40.7c0-26.8-0.1-30.2-0.6-40.7
			c-0.5-10.5-2.1-17.7-4.6-24c-2.5-6.5-5.9-12-11.4-17.5c-5.5-5.5-11-8.9-17.5-11.4c-6.3-2.4-13.5-4.1-24-4.6
			C280.2,151.4,276.8,151.3,250,151.3"/>
		<path id="XMLID_2073_" class="st1" d="M250,199.3c-28,0-50.7,22.7-50.7,50.7c0,28,22.7,50.7,50.7,50.7c28,0,50.7-22.7,50.7-50.7
			C300.7,222,278,199.3,250,199.3 M250,282.9c-18.2,0-32.9-14.7-32.9-32.9c0-18.2,14.7-32.9,32.9-32.9s32.9,14.7,32.9,32.9
			C282.9,268.2,268.2,282.9,250,282.9"/>
		<path id="XMLID_2025_" class="st1" d="M314.5,197.3c0,6.5-5.3,11.8-11.8,11.8c-6.5,0-11.8-5.3-11.8-11.8c0-6.5,5.3-11.8,11.8-11.8
			C309.2,185.5,314.5,190.8,314.5,197.3"/>
	</g>
</g>
</svg>
