<?xml version="1.0" encoding="utf-8"?>
<!-- Generator: Adobe Illustrator 24.2.1, SVG Export Plug-In . SVG Version: 6.00 Build 0)  -->
<svg version="1.1" id="Capa_1" xmlns="http://www.w3.org/2000/svg" xmlns:xlink="http://www.w3.org/1999/xlink" x="0px" y="0px"
	 viewBox="0 0 500 500" style="enable-background:new 0 0 500 500;" xml:space="preserve">
<style type="text/css">
	.st0{fill:none;stroke:#222221;stroke-width:14.1878;stroke-miterlimit:10;}
	.st1{fill:#222221;}
</style>
<g id="XMLID_2111_">
	<path id="XMLID_2113_" class="st0" d="M250,430L250,430c-99.4,0-180-80.6-180-180v0c0-99.4,80.6-180,180-180l0,0
		c99.4,0,180,80.6,180,180v0C430,349.4,349.4,430,250,430z"/>
	<path id="XMLID_2112_" class="st1" d="M154.1,310.3c17.4,11.2,38.1,17.7,60.3,17.7c73.1,0,114.3-61.7,111.9-117.1
		c7.7-5.5,14.4-12.5,19.6-20.4c-7.1,3.1-14.6,5.2-22.6,6.2c8.1-4.9,14.4-12.6,17.3-21.8c-7.6,4.5-16,7.8-25,9.6
		c-7.2-7.6-17.4-12.4-28.7-12.4c-25.4,0-44.1,23.7-38.3,48.3c-32.7-1.6-61.7-17.3-81.1-41.1c-10.3,17.7-5.3,40.8,12.2,52.5
		c-6.5-0.2-12.5-2-17.8-4.9c-0.4,18.2,12.6,35.3,31.6,39.1c-5.5,1.5-11.6,1.8-17.8,0.7c5,15.6,19.5,27,36.8,27.3
		C195.8,306.9,175,312.7,154.1,310.3z"/>
</g>
</svg>
